<svg height="88.58103376113817" width="78.125" style="width: 78.125px; height: 88.581px; position: absolute; top: 50%; left: 50%; transform: translate(-50%, -50%) scale(1); z-index: 0; cursor: pointer; overflow: visible;"><defs id="SvgjsDefs1001"><linearGradient id="SvgjsLinearGradient1011"><stop id="SvgjsStop1012" stop-color="#ef4136" offset="0"></stop><stop id="SvgjsStop1013" stop-color="#fbb040" offset="1"></stop></linearGradient></defs><g id="SvgjsG1007" featurekey="rootContainer" transform="matrix(1.5751003703485509,0,0,1.5751003703485509,0.00001159481866652495,0.006573652786967792)" fill="url(#SvgjsLinearGradient1011)"><path xmlns="http://www.w3.org/2000/svg" d="M23.11 55.78L1.69 43.41A3.39 3.39 0 0 1 0 40.48V15.75a3.39 3.39 0 0 1 1.69-2.94L23.11.45a3.39 3.39 0 0 1 3.39 0l21.41 12.37a3.39 3.39 0 0 1 1.69 2.94v24.72a3.39 3.39 0 0 1-1.69 2.94L26.5 55.78a3.39 3.39 0 0 1-3.39 0z"></path></g><g id="SvgjsG1008" featurekey="nameFeature-0" transform="matrix(1.491646587917608,0,0,1.491646587917608,11.076371919507167,4.563241572729378)" fill="#ffffff"><path d="M30.76 40.2 c-0.04 -4.28 -1.64 -19.44 -1.76 -20.52 c-2.88 5.2 -5.64 10.44 -8.28 15.76 c-1.24 2.52 -1.6 3.52 -2.08 4.76 c-0.2 -0.04 -0.4 -0.08 -0.56 -0.08 s-0.32 0.04 -0.52 0.08 c-0.72 -1.64 -1.16 -2.64 -1.88 -4.04 c-2.8 -5.4 -6 -11.52 -8.64 -16.12 c-0.96 6 -1.68 16.56 -1.64 20.16 c-0.64 -0.16 -1 -0.24 -1.52 -0.24 c-0.8 0 -1.52 0.16 -1.92 0.24 c0.4 -1.88 3.2 -19.08 4.12 -27.84 c0.2 0.04 0.44 0.08 0.68 0.08 c0.2 0 0.52 -0.04 0.8 -0.08 c1.16 2.64 9 17.44 11.56 21.56 c6.44 -11.96 7.16 -13.28 9.52 -17.76 c0.96 -1.88 1.16 -2.28 1.84 -3.8 c0.28 0.04 0.48 0.08 0.72 0.08 c0.2 0 0.44 -0.04 0.76 -0.08 c0.92 8.44 2.24 20.32 3.28 26.76 c0.04 0.28 0.08 0.56 0.24 1.08 c-1.08 -0.16 -1.52 -0.24 -2.24 -0.24 c-1.16 0 -1.8 0.12 -2.48 0.24 z"></path></g></svg>